<?xml version="1.0" encoding="UTF-8"?>
<!--
  Professional abstract hero SVG for Practical Manager.
  Original artwork created for use in this repository. Considered free to use.
-->
<svg xmlns="http://www.w3.org/2000/svg" width="1920" height="1080" viewBox="0 0 1920 1080" preserveAspectRatio="xMidYMid slice">
  <defs>
    <linearGradient id="bg" x1="0" x2="1" y1="0" y2="1">
      <stop offset="0%" stop-color="#F8FBFF" />
      <stop offset="100%" stop-color="#FFFBF5" />
    </linearGradient>
    <linearGradient id="accent" x1="0" x2="1">
      <stop offset="0%" stop-color="#60A5FA" stop-opacity="0.95" />
      <stop offset="100%" stop-color="#FBBF24" stop-opacity="0.95" />
    </linearGradient>
    <filter id="f1" x="-20%" y="-20%" width="140%" height="140%">
      <feGaussianBlur stdDeviation="24" result="b" />
      <feBlend in="SourceGraphic" in2="b" mode="normal" />
    </filter>
  </defs>

  <rect width="100%" height="100%" fill="url(#bg)" />

  <!-- Large soft blobs -->
  <g filter="url(#f1)" opacity="0.95">
    <ellipse cx="360" cy="260" rx="420" ry="240" fill="url(#accent)" transform="rotate(-18 360 260)" />
    <ellipse cx="1500" cy="560" rx="540" ry="300" fill="#FFF2D6" transform="rotate(12 1500 560)" />
  </g>

  <!-- Geometric lines and points to suggest structure -->
  <g stroke="#0F172A" stroke-opacity="0.06" stroke-width="2">
    <path d="M120 920 L1800 920" />
    <path d="M120 860 L1800 860" />
    <path d="M120 800 L1800 800" />
  </g>

  <!-- Central abstract team symbol made of modern geometric shapes -->
  <g transform="translate(720,420) scale(1.1)">
    <rect x="-260" y="40" width="160" height="120" rx="18" fill="#ffffff" opacity="0.08" />
    <rect x="60" y="40" width="160" height="120" rx="18" fill="#ffffff" opacity="0.08" />

    <circle cx="-180" cy="0" r="28" fill="#0EA5E9" />
    <rect x="-210" y="30" width="60" height="80" rx="12" fill="#0EA5E9" />

    <circle cx="0" cy="-40" r="32" fill="#F59E0B" />
    <rect x="-32" y="-8" width="64" height="96" rx="12" fill="#F59E0B" />

    <circle cx="180" cy="0" r="28" fill="#60A5FA" />
    <rect x="150" y="30" width="60" height="80" rx="12" fill="#60A5FA" />
  </g>

  <!-- Target/goal motif to the right -->
  <g transform="translate(1360,420) scale(1.2)">
    <circle cx="0" cy="0" r="64" fill="#fff" opacity="0.95" />
    <circle cx="0" cy="0" r="40" fill="#FBBF24" />
    <circle cx="0" cy="0" r="18" fill="#fff" />
  </g>

  <!-- subtle dot pattern for texture -->
  <g fill="#0F172A" opacity="0.03">
    <circle cx="240" cy="720" r="3" />
    <circle cx="320" cy="700" r="3" />
    <circle cx="400" cy="740" r="3" />
    <circle cx="460" cy="720" r="3" />
  </g>

</svg>
